<?xml version="1.0" encoding="utf-8"?>
<!-- Generator: Adobe Illustrator 22.0.1, SVG Export Plug-In . SVG Version: 6.00 Build 0)  -->
<svg version="1.1" id="Layer_1" xmlns="http://www.w3.org/2000/svg" xmlns:xlink="http://www.w3.org/1999/xlink" x="0px" y="0px"
	 viewBox="0 0 500 500" style="enable-background:new 0 0 500 500;" xml:space="preserve">
<style type="text/css">
	.st0{fill:#F2CD14;}
</style>
<g>
	<polygon class="st0" points="249.8,333.6 167.2,376.9 183.1,285 116.3,219.8 208.7,206.5 250.1,122.9 291.3,206.6 383.6,220.2 
		316.7,285.2 332.3,377.2 	"/>
	<path d="M250.1,124l40.6,82.6l0.2,0.5l0.5,0.1l91,13.4l-66,64.1l-0.4,0.4l0.1,0.5l15.4,90.7l-81.4-42.9l-0.5-0.2l-0.5,0.2
		l-81.5,42.7l15.7-90.7l0.1-0.5l-0.4-0.4l-65.6-64.3l91.1-13.1l0.5-0.1l0.2-0.5L250.1,124 M250.1,121.8l-41.7,84.3l-93.1,13.4
		l67.3,65.7l-16,92.7l83.3-43.6l83.2,43.9l-15.8-92.7l67.4-65.6l-93-13.7L250.1,121.8L250.1,121.8z"/>
</g>
</svg>
