<?xml version="1.0" encoding="utf-8"?>
<!-- Generator: Adobe Illustrator 22.0.1, SVG Export Plug-In . SVG Version: 6.00 Build 0)  -->
<svg version="1.1" id="Layer_1" xmlns="http://www.w3.org/2000/svg" xmlns:xlink="http://www.w3.org/1999/xlink" x="0px" y="0px"
	 viewBox="0 0 200 100" style="enable-background:new 0 0 200 100;" xml:space="preserve">
<g>
	<path d="M55.4,48.5h3.3c0.2,0,0.3,0,0.4,0.1s0.2,0.1,0.3,0.3s0.1,0.2,0.2,0.3s0.1,0.2,0.1,0.4c0,0.1,0,0.2-0.1,0.4
		s-0.1,0.2-0.2,0.3s-0.2,0.2-0.3,0.2s-0.3,0.1-0.5,0.1h-3.3V52c0,0.1,0,0.2,0.1,0.3s0.1,0.1,0.3,0.1h3.2c0.2,0,0.3,0,0.5,0.1
		s0.2,0.1,0.3,0.2c0.1,0.1,0.1,0.2,0.2,0.3c0,0.1,0.1,0.2,0.1,0.4c0,0.1,0,0.2-0.1,0.4c0,0.1-0.1,0.2-0.2,0.3s-0.2,0.2-0.3,0.3
		s-0.3,0.1-0.4,0.1h-4.1c-0.4,0-0.7,0-0.9-0.1c-0.2-0.1-0.4-0.2-0.6-0.3c-0.1-0.2-0.2-0.3-0.3-0.6c-0.1-0.2-0.1-0.5-0.1-0.9v-5.9
		c0-0.3,0-0.6,0.1-0.9c0.1-0.2,0.2-0.4,0.3-0.6c0.1-0.2,0.3-0.3,0.6-0.3c0.2-0.1,0.5-0.1,0.9-0.1h4c0.2,0,0.3,0,0.4,0.1
		c0.1,0.1,0.2,0.1,0.3,0.3c0.1,0.1,0.1,0.2,0.2,0.3c0,0.1,0.1,0.3,0.1,0.4s0,0.2-0.1,0.4c0,0.1-0.1,0.2-0.2,0.3
		c-0.1,0.1-0.2,0.2-0.3,0.2s-0.3,0.1-0.4,0.1h-3c-0.1,0-0.2,0-0.3,0.1s-0.1,0.1-0.1,0.3V48.5z"/>
	<path d="M66.1,45.9c0-0.2,0-0.4,0.1-0.5c0.1-0.2,0.2-0.3,0.3-0.4c0.1-0.1,0.2-0.2,0.4-0.2s0.3-0.1,0.5-0.1c0.3,0,0.6,0.1,0.9,0.3
		c0.2,0.2,0.4,0.5,0.4,0.9v5.2c0,0.7-0.1,1.2-0.4,1.7c-0.2,0.4-0.5,0.8-0.9,1.1c-0.4,0.3-0.8,0.5-1.2,0.6s-0.9,0.2-1.3,0.2
		c-0.4,0-0.9-0.1-1.3-0.2s-0.9-0.3-1.2-0.6c-0.4-0.3-0.7-0.6-0.9-1.1c-0.2-0.4-0.4-1-0.4-1.7v-5.2c0-0.2,0-0.4,0.1-0.5
		c0.1-0.2,0.2-0.3,0.3-0.4c0.1-0.1,0.2-0.2,0.4-0.2c0.1,0,0.3-0.1,0.5-0.1c0.3,0,0.6,0.1,0.9,0.3c0.2,0.2,0.4,0.5,0.4,0.9v5.3
		c0,0.2,0,0.4,0.1,0.6s0.2,0.3,0.3,0.4c0.1,0.1,0.3,0.2,0.5,0.3c0.2,0.1,0.3,0.1,0.5,0.1s0.3,0,0.5-0.1c0.2-0.1,0.3-0.1,0.5-0.3
		c0.1-0.1,0.2-0.3,0.3-0.4s0.1-0.4,0.1-0.6V45.9z"/>
	<path d="M75.5,50.7v-4.8c0-0.4,0.1-0.6,0.3-0.8c0.2-0.2,0.5-0.3,0.8-0.3s0.5,0.1,0.8,0.3c0.2,0.2,0.3,0.5,0.3,0.8v7.6
		c0,0.2,0,0.3-0.1,0.5c-0.1,0.1-0.2,0.3-0.3,0.3c-0.1,0.1-0.2,0.2-0.4,0.2c-0.1,0.1-0.3,0.1-0.4,0.1c-0.3,0-0.6,0-0.9-0.1
		c-0.3-0.1-0.5-0.3-0.7-0.6L72,48.7v5.7h-2.2V46c0-0.2,0-0.3,0.1-0.5c0.1-0.1,0.2-0.3,0.3-0.4s0.2-0.2,0.4-0.2
		c0.1-0.1,0.3-0.1,0.4-0.1c0.3,0,0.6,0,0.9,0.1c0.3,0.1,0.5,0.3,0.7,0.6L75.5,50.7z"/>
	<path d="M83.7,50.9v3.5h-2.4v-3.6l-2.7-4.3c-0.1-0.2-0.2-0.4-0.2-0.5c0-0.2,0-0.3,0.1-0.5c0.1-0.2,0.1-0.3,0.3-0.4
		c0.1-0.1,0.2-0.2,0.4-0.3c0.4-0.2,0.7-0.2,1.1,0c0.3,0.1,0.6,0.4,0.8,0.7l1.7,2.8l1.6-2.8c0.1-0.1,0.2-0.3,0.3-0.4s0.2-0.2,0.4-0.3
		c0.1-0.1,0.3-0.1,0.5-0.1c0.2,0,0.4,0,0.6,0.1c0.1,0,0.3,0.1,0.4,0.2s0.2,0.2,0.3,0.4c0.1,0.2,0.1,0.3,0.1,0.5s-0.1,0.4-0.2,0.6
		L83.7,50.9z"/>
	<path d="M87.1,48.4c0-0.7,0.1-1.3,0.4-1.7c0.2-0.5,0.6-0.8,1-1.1c0.4-0.3,0.8-0.5,1.3-0.6s0.9-0.2,1.4-0.2c0.4,0,0.9,0.1,1.4,0.2
		c0.5,0.1,0.9,0.3,1.3,0.6c0.4,0.3,0.7,0.7,1,1.1c0.3,0.5,0.4,1,0.4,1.7V51c0,0.7-0.1,1.3-0.4,1.7c-0.3,0.5-0.6,0.8-1,1.1
		c-0.4,0.3-0.8,0.5-1.3,0.6c-0.5,0.1-0.9,0.2-1.4,0.2c-0.4,0-0.9-0.1-1.4-0.2c-0.5-0.1-0.9-0.3-1.3-0.6c-0.4-0.3-0.7-0.7-1-1.1
		c-0.3-0.5-0.4-1-0.4-1.7V48.4z M92.7,48.3c0-0.3,0-0.5-0.1-0.7c-0.1-0.2-0.2-0.4-0.4-0.5c-0.2-0.1-0.3-0.2-0.5-0.3
		c-0.2-0.1-0.4-0.1-0.6-0.1c-0.2,0-0.4,0-0.6,0.1c-0.2,0.1-0.4,0.2-0.5,0.3c-0.2,0.1-0.3,0.3-0.4,0.5c-0.1,0.2-0.1,0.4-0.1,0.7v2.8
		c0,0.2,0,0.5,0.1,0.6c0.1,0.2,0.2,0.4,0.4,0.5c0.2,0.1,0.3,0.2,0.5,0.3c0.2,0.1,0.4,0.1,0.5,0.1s0.3,0,0.5-0.1
		c0.2-0.1,0.4-0.2,0.5-0.3c0.2-0.1,0.3-0.3,0.4-0.5c0.1-0.2,0.2-0.4,0.2-0.6V48.3z"/>
	<path d="M101.5,45.9c0-0.2,0-0.4,0.1-0.5c0.1-0.2,0.2-0.3,0.3-0.4c0.1-0.1,0.2-0.2,0.4-0.2c0.1,0,0.3-0.1,0.5-0.1
		c0.3,0,0.6,0.1,0.9,0.3c0.2,0.2,0.4,0.5,0.4,0.9v5.2c0,0.7-0.1,1.2-0.4,1.7c-0.2,0.4-0.5,0.8-0.9,1.1c-0.4,0.3-0.8,0.5-1.2,0.6
		s-0.9,0.2-1.3,0.2s-0.9-0.1-1.3-0.2s-0.9-0.3-1.2-0.6c-0.4-0.3-0.7-0.6-0.9-1.1c-0.2-0.4-0.4-1-0.4-1.7v-5.2c0-0.2,0-0.4,0.1-0.5
		c0.1-0.2,0.2-0.3,0.3-0.4c0.1-0.1,0.2-0.2,0.4-0.2c0.1,0,0.3-0.1,0.5-0.1c0.3,0,0.6,0.1,0.9,0.3c0.2,0.2,0.4,0.5,0.4,0.9v5.3
		c0,0.2,0,0.4,0.1,0.6c0.1,0.2,0.2,0.3,0.3,0.4c0.1,0.1,0.3,0.2,0.5,0.3c0.2,0.1,0.3,0.1,0.5,0.1s0.3,0,0.5-0.1
		c0.2-0.1,0.3-0.1,0.4-0.3c0.1-0.1,0.2-0.3,0.3-0.4s0.1-0.4,0.1-0.6V45.9z"/>
	<path d="M110.9,50.7v-4.8c0-0.4,0.1-0.6,0.3-0.8c0.2-0.2,0.5-0.3,0.8-0.3s0.5,0.1,0.8,0.3c0.2,0.2,0.3,0.5,0.3,0.8v7.6
		c0,0.2,0,0.3-0.1,0.5c-0.1,0.1-0.2,0.3-0.3,0.3c-0.1,0.1-0.2,0.2-0.4,0.2c-0.1,0.1-0.3,0.1-0.4,0.1c-0.3,0-0.6,0-0.9-0.1
		c-0.3-0.1-0.5-0.3-0.7-0.6l-2.9-5.2v5.7h-2.2V46c0-0.2,0-0.3,0.1-0.5c0.1-0.1,0.2-0.3,0.3-0.4s0.2-0.2,0.4-0.2
		c0.1-0.1,0.3-0.1,0.4-0.1c0.3,0,0.6,0,0.9,0.1c0.3,0.1,0.5,0.3,0.7,0.6L110.9,50.7z"/>
	<path d="M122.2,51.3c0,0.6-0.1,1.1-0.3,1.6s-0.5,0.8-0.8,1.1c-0.3,0.3-0.7,0.5-1.2,0.6c-0.5,0.1-0.9,0.2-1.5,0.2
		c-0.5,0-1-0.1-1.5-0.2c-0.5-0.1-0.9-0.3-1.3-0.6s-0.7-0.7-0.9-1.1c-0.2-0.5-0.4-1-0.4-1.7v-2.6c0-0.7,0.1-1.2,0.4-1.7
		c0.2-0.5,0.6-0.8,0.9-1.1c0.4-0.3,0.8-0.5,1.3-0.6c0.5-0.1,1-0.2,1.5-0.2c0.6,0,1.1,0.1,1.5,0.2c0.5,0.1,0.8,0.3,1,0.4
		c0.2,0.2,0.4,0.4,0.5,0.7c0.1,0.3,0.1,0.5-0.1,0.8c-0.1,0.2-0.3,0.4-0.5,0.4c-0.2,0.1-0.4,0.1-0.6,0.1c-0.1,0-0.3-0.1-0.4-0.1
		c-0.1-0.1-0.2-0.1-0.3-0.1c-0.3-0.1-0.7-0.2-1.2-0.2c-0.2,0-0.4,0-0.6,0.1c-0.2,0.1-0.4,0.2-0.6,0.3c-0.2,0.1-0.3,0.3-0.4,0.5
		c-0.1,0.2-0.2,0.4-0.2,0.7v2.4c0,0.3,0,0.5,0.1,0.7c0.1,0.2,0.2,0.4,0.4,0.5c0.2,0.1,0.3,0.2,0.6,0.3c0.2,0.1,0.4,0.1,0.6,0.1
		c0.2,0,0.4,0,0.6-0.1c0.2-0.1,0.4-0.1,0.5-0.2s0.3-0.2,0.3-0.4c0.1-0.2,0.1-0.3,0.1-0.6v-0.1c0-0.1,0-0.2-0.1-0.2c0,0-0.1,0-0.2,0
		h-0.4c-0.2,0-0.3,0-0.4-0.1s-0.2-0.1-0.3-0.2c-0.1-0.1-0.1-0.2-0.2-0.3s-0.1-0.2-0.1-0.4s0-0.2,0.1-0.4s0.1-0.2,0.2-0.3
		c0.1-0.1,0.2-0.2,0.3-0.2c0.1-0.1,0.3-0.1,0.4-0.1h1.1c0.4,0,0.6,0,0.9,0.1c0.2,0.1,0.4,0.2,0.5,0.3c0.1,0.1,0.2,0.3,0.3,0.6
		c0.1,0.2,0.1,0.5,0.1,0.8V51.3z"/>
	<path d="M125.5,45.5c0.2-0.5,0.5-0.7,1.1-0.7c0.4,0,0.6,0.1,0.9,0.3c0.2,0.2,0.3,0.5,0.3,0.9v8.5h-2.4v-6h-1.1
		c-0.3,0-0.6-0.1-0.9-0.3s-0.4-0.4-0.4-0.8c0-0.3,0.1-0.5,0.3-0.7s0.4-0.3,0.6-0.3c0.4,0,0.7-0.1,1-0.3
		C125.2,46.1,125.4,45.8,125.5,45.5z"/>
	<path d="M133.2,54.7c-0.5,0-0.9-0.1-1.3-0.2c-0.4-0.1-0.8-0.3-1.1-0.6c-0.3-0.3-0.5-0.6-0.7-1c-0.2-0.4-0.3-0.9-0.3-1.4V48
		c0-0.5,0.1-1,0.3-1.4c0.2-0.4,0.4-0.7,0.7-1s0.7-0.5,1.1-0.6c0.4-0.1,0.9-0.2,1.3-0.2c0.5,0,0.9,0.1,1.3,0.2
		c0.4,0.1,0.8,0.3,1.1,0.6s0.5,0.6,0.7,1c0.2,0.4,0.3,0.9,0.3,1.4v3.5c0,0.5-0.1,1-0.3,1.4c-0.2,0.4-0.4,0.7-0.7,1
		c-0.3,0.3-0.7,0.5-1.1,0.6C134.2,54.6,133.7,54.7,133.2,54.7z M133.2,52.7c0.1,0,0.2,0,0.3,0c0.1,0,0.2-0.1,0.3-0.2
		c0.1-0.1,0.2-0.2,0.2-0.3c0.1-0.1,0.1-0.3,0.1-0.5v-3.9c0-0.2,0-0.3-0.1-0.5c-0.1-0.1-0.1-0.2-0.2-0.3c-0.1-0.1-0.2-0.1-0.3-0.2
		c-0.1,0-0.2-0.1-0.3-0.1c-0.1,0-0.2,0-0.3,0.1c-0.1,0-0.2,0.1-0.3,0.2c-0.1,0.1-0.2,0.2-0.2,0.3s-0.1,0.3-0.1,0.5v3.9
		c0,0.2,0,0.4,0.1,0.5s0.1,0.2,0.2,0.3c0.1,0.1,0.2,0.1,0.3,0.2C133,52.6,133.1,52.7,133.2,52.7z"/>
	<path d="M140.1,45.5c0.2-0.5,0.5-0.7,1.1-0.7c0.4,0,0.6,0.1,0.9,0.3s0.3,0.5,0.3,0.9v8.5H140v-6h-1.1c-0.3,0-0.6-0.1-0.9-0.3
		c-0.2-0.2-0.4-0.4-0.4-0.8c0-0.3,0.1-0.5,0.3-0.7s0.4-0.3,0.6-0.3c0.4,0,0.7-0.1,1-0.3S140,45.8,140.1,45.5z"/>
</g>
</svg>
